<?xml version="1.0" encoding="utf-8"?>
<!-- Generator: Adobe Illustrator 22.1.0, SVG Export Plug-In . SVG Version: 6.00 Build 0)  -->
<svg version="1.1" id="Layer_1" xmlns="http://www.w3.org/2000/svg" xmlns:xlink="http://www.w3.org/1999/xlink" x="0px" y="0px"
	 viewBox="0 0 300 300" style="enable-background:new 0 0 300 300;" xml:space="preserve">
<style type="text/css">
	.st0{fill:#FFFFFF;}
	.st1{clip-path:url(#SVGID_2_);}
	.st2{fill:#F47E20;}
</style>
<path class="st0" d="M281.2,100.3c-1.8,0-9.7,2.1-8.7,1.8c0.9-0.3-13.2,4.9-12.9,2.5c0.3-2.4,9.6-4.8,14.9-5.5l1.9-0.8
	c5-4,19.2-7.7,19.9-4.3C296.9,97.4,283,100.3,281.2,100.3"/>
<path class="st0" d="M269.6,266.8c-2,0-3.6-1.6-3.6-3.6c0-2.1,1.6-3.6,3.6-3.6c2,0,3.6,1.6,3.6,3.6
	C273.2,265.3,271.6,266.8,269.6,266.8L269.6,266.8"/>
<g>
	<g>
		<path class="st0" d="M257.8,121.8c0.8,0.3,3.7,0.5,5.3,0.5l1.7-0.7c2.7-3.3-2.3-5-3.9-4.4c-3.9,1.2-6.2-1.8-8.8-4
			c-0.8-0.7-1.5-2.5-1.3-4c0.5-3.4,2.6-3.8,4.2-7c0.1-0.3,1.7-2.1,0.2-4.2c-3.5-3.1-9,3.7-13.5,5.6l-3.6-0.1
			c-13.1-4.7,3.6-12.9,1.1-21.3c-0.2-0.5-2.6-2.8-4.5-3.2c-6.9-2.1,0.2-13.9-9.2-11.4l-2.1-0.6c-4.4-3.5-12-2.3-14.8-7.2l0-1.8
			c6.8-15.1,18.7-35.3,19-37c0.3-1.7-1.2-0.8-1.2-0.8c-2.8,2.1-3.6,5.8-4.8,8.7c-1.3,4.1-7.3,4.6-6.6,9.3l0.1,1.6
			c-1.1,7.4-9.1,8-15.4,10l-2.6,0.4c-6.5-0.5-6.8-8.9-11.4-12.6c-0.5-0.4-1.6-1-2.6-0.8c-3.8,1.1-6.2,3.8-8.3,6.7
			c-0.9,1.3-4.2,1.7-7,1.8c-13.8,0.3-23.2,8.8-33-5.3c-1.5-2.6-4.5-3.6-7-2.8c-7.1,1.7-10.6,7.5-18.4,3.5c-0.9-0.8-2.3-3.1-2.7-4.1
			c-0.4-0.9-1.1-4.2-1.7-4.9c-2.4-3.2-5.6-13.1-5.6-13.4c-0.3-3.4-2-13.4-4.4-7.4c-1.6,5.4,3.6,8.3,4.9,13.3
			c1.1,8.5,6.8,16.3,8.6,25.8l-0.1,1.8c-0.7,1.7-2.5,2.1-4.2,2.6l-1.8-0.1c-4.7-1.9-9.2-7.6-14-5.1L88,50.2
			c3.2,3.4,0.6,8.3,3.3,11.8l0.5,1.1l-0.3,1.8c-1.4,3.7-3.9,3.9-5.4,7.4l-1,1c-7.6,2.4-8.2,9.7-13.9,14.4
			c-6.4,7.3-13.3-0.5-19.8-1.4c-2.2-0.3-4.1,0.9-5,1.3c-0.9,0.4-1.7,2.6-1.5,3.5c0.3,1.2,8.1,4.2,12.7,6.3l1.1,0.8
			c5.8,7.5-2.1,13.7-4.8,20.6c-2.7,4.4-6.2-1.6-9.9,1.8c-4.5,3.5-3.2,5.2-1.3,7.8c1.1,1.1,4.6,3,6.9,3.2c11.5,1.1,9.7,15.9,7.4,24.6
			c-2,4.7-9,6.7-11.6,8c-2.5,1.1-13.6,2-19,5.5c-4.3,2.8-5.8,7.3-4.7,9.8c1.1,2.5,10.4-1.1,13.1-4.5c2.3-2.5,11.1,1.2,15.5,0.1
			c13-3.5,15.3,4.9,24.7,11.3c1.9,2,5.8,3.7,6.5,5.9c1.6,4,4.3,11,6.8,14.2c3.2,4,9.4,11.2,9.5,14.6c-0.2,5.6-3.5,11.3-6.1,15.9
			c-1.4,3,2.4,5.4,4.7,5.4c2.4-0.3,6.9-5.7,7.8-9.6c3.1-9.9,16.1-4.1,24.2-4.8c0.3,0,2.9,0.7,4.6,1.4c4.3,1.5,3.8,4.3,8.8,2.7
			c1.9-0.7,4.2,0.5,6.2,1.6c8.9,3-2.5,23.8,6.4,28.1c8.9,4.3,0.3-18.1,5.7-26.4c3.8-5,9.8-8.4,16-9.6c5,0,11.1,8.1,12.1,13.6
			c1.3,5.1,2.7,11.5,7.9,11.9l0.8-0.8c0.3-4.6-2.9-9.5-2.7-14.1l-0.3-2.6c-1.8-5.2-9.3-8.8-5.6-12.8c2-2.1,5.3-4.2,5.8-4.6
			c4.6-3.7,7.7,6.1,13.2,3.8c1-0.4,3.4-2,3.4-5.1c0.7-7.9,6.8-10.5,14-12.6l2-1.1c3.1-2.9,0.8-5.5,2.3-9c1.4-3.2,2.4-3.5,4.1-3.8
			c10.7-1.9,25.9,12.7,28.5,14.5c1.1,0.8,5.6,1.6,6.7,0.4c0.6-0.7,0.5-3.2,0.1-5.3l-1.3-1.8c-6.2-5.1-15.7-6-22.9-9.8l-2.3-1.8
			l-1.2-1.6c-2.9-6.1-4.5-13.9-6.3-19.7c-1.2-4.1,0.3-12.3,4.9-19.4c1.4-1.8,1.9-7.3,1.9-7.9c-1.3-8.3,9-9.8,13.8-14.2
			C255.2,122.1,256.6,121.4,257.8,121.8 M81,274.4c-2.9-1.8-0.6-7.1-0.3-8.3c0.3-1.2-0.8-1.9,2-3.8c2.8-1.9,1.4,7.5,1.3,8.1
			C83.9,271,82.6,273.9,81,274.4z M68,280.2c0.1-1-1.5-1.4-2.3-0.4c-0.8,1-2.8,5.7,0,7.3C68.3,285.9,67.9,281.1,68,280.2z
			 M9.1,186.9c0.9-2.2-1.4-6-4.1-3.9l-0.6,0.7c-0.6,1-1.8,1.9-0.9,3.1c1.5,1.3,3.3,1.4,5,0.7L9.1,186.9z"/>
	</g>
</g>
<g>
	<g>
		<defs>
			<path id="SVGID_1_" d="M257.8,121.8c0.9,0.3,3.8,0.4,5.3,0.5l1.7-0.7c2.7-3.3-2.2-5-3.9-4.5c-3.9,1.3-6.2-1.8-8.7-3.9
				c-0.9-0.8-1.5-2.6-1.3-4c0.5-3.4,2.6-3.8,4.1-7c0.2-0.3,1.8-2.1,0.2-4.2c-3.5-3-9,3.7-13.5,5.6l-3.6-0.1
				c-13-4.7,3.5-12.9,1.1-21.3c-0.2-0.5-2.7-2.8-4.5-3.3c-7-2.1,0.2-13.9-9.2-11.3l-2.1-0.6c-4.4-3.5-12-2.3-14.8-7.2l0.1-1.8
				c6.8-15.1,18.7-35.3,19-37c0.3-1.7-1.2-0.8-1.2-0.8c-2.8,2.1-3.6,5.7-4.9,8.7c-1.2,4-7.2,4.6-6.6,9.4l0.1,1.5
				c-1,7.5-9,8.1-15.4,10l-2.7,0.4c-6.5-0.5-6.8-8.9-11.3-12.6c-0.5-0.4-1.5-1-2.6-0.9c-3.9,1.1-6.3,3.8-8.3,6.7
				c-0.9,1.4-4.2,1.7-7,1.9c-13.9,0.3-23.2,8.7-33.1-5.3c-1.5-2.7-4.6-3.6-7-2.8c-7.1,1.7-10.5,7.4-18.4,3.5
				c-0.9-0.9-2.3-3.2-2.7-4.1c-0.3-0.9-1.1-4.1-1.6-4.9c-2.5-3.2-5.6-13.1-5.6-13.4c-0.3-3.4-2.1-13.5-4.5-7.5
				c-1.5,5.5,3.7,8.4,4.9,13.3c1.1,8.5,6.8,16.2,8.6,25.7l-0.1,1.8c-0.7,1.8-2.5,2.1-4.2,2.7l-1.8-0.2c-4.7-2-9.2-7.6-14.1-5.1
				L88,50.2c3.3,3.4,0.6,8.2,3.3,11.8l0.4,1.1L91.5,65c-1.4,3.7-3.9,3.9-5.4,7.4l-0.9,1c-7.6,2.4-8.2,9.8-13.9,14.4
				c-6.3,7.3-13.3-0.5-19.8-1.4c-2.2-0.3-4.1,0.9-5,1.3c-0.9,0.4-1.7,2.6-1.5,3.5c0.3,1.2,8.1,4.2,12.7,6.3l1.1,0.8
				c5.8,7.5-2.1,13.7-4.8,20.7c-1.5,2.2-3.1,1.7-4.9,1.1c-1.5-0.5-3.3-0.9-5,0.7c-4.6,3.4-3.3,5.1-1.3,7.8c1.1,1.1,4.5,3,6.9,3.3
				c11.5,1,9.6,15.9,7.4,24.6c-2.1,4.7-9,6.7-11.6,7.9c-2.5,1.1-13.6,2-19,5.6c-4.2,2.8-5.7,7.3-4.6,9.8c1.1,2.5,10.4-1,13-4.5
				c1.3-1.5,4.6-0.9,8.1-0.3c2.7,0.4,5.5,0.9,7.5,0.4c13-3.4,15.2,4.9,24.6,11.3c1.9,2,5.8,3.7,6.5,5.8c1.6,4,4.3,11,6.7,14.2
				c3.3,4,9.4,11.2,9.6,14.6c-0.2,5.7-3.5,11.3-6.2,15.9c-1.4,3,2.4,5.4,4.7,5.4c2.5-0.3,7-5.7,7.8-9.6c2.1-7,9.3-6.1,16-5.2
				c2.8,0.3,5.7,0.7,8.1,0.5c0.3-0.1,2.9,0.6,4.6,1.4c4.3,1.5,3.9,4.3,8.8,2.7c2-0.8,4.2,0.5,6.3,1.5c8.8,3-2.5,23.8,6.3,28
				c8.9,4.4,0.3-18.1,5.7-26.4c3.9-5,9.9-8.4,16-9.5c5-0.1,11.1,8.2,12.1,13.6c1.3,5.1,2.7,11.5,7.9,11.9l0.8-0.9
				c0.3-4.6-2.8-9.4-2.7-14.1l-0.3-2.6c-1.9-5.2-9.3-8.8-5.7-12.8c2.1-2.1,5.3-4.2,5.8-4.6c2.4-2,4.4-0.2,6.6,1.6
				c1.9,1.5,3.9,3.2,6.6,2.1c0.9-0.4,3.4-2,3.4-5.1c0.6-7.9,6.8-10.5,14-12.6l2-1.1c3.2-2.9,0.8-5.4,2.3-9c1.5-3.3,2.4-3.5,4.1-3.8
				c10.7-2,25.9,12.7,28.5,14.5c1.1,0.7,5.7,1.5,6.7,0.3c0.7-0.7,0.5-3.2,0.1-5.3l-1.2-1.8c-6.3-5.1-15.8-6-23-9.8l-2.2-1.8
				l-1.3-1.6c-2.9-6.1-4.5-13.9-6.2-19.6c-1.3-4.1,0.3-12.3,4.9-19.4c1.5-1.7,2-7.3,1.9-7.9c-1.3-8.3,9-9.8,13.8-14.2
				C255.2,122.1,256.6,121.4,257.8,121.8 M81,274.4c-2.8-1.7-0.5-7-0.3-8.2c0.3-1.2-0.9-1.9,2-3.8c2.8-2,1.4,7.5,1.3,8.1
				C83.9,271,82.6,274,81,274.4 M68,280.2c0.1-1-1.5-1.4-2.3-0.4c-0.8,1-2.7,5.7,0.1,7.3C68.3,285.9,67.9,281.2,68,280.2 M9.1,186.9
				c0.9-2.2-1.4-5.9-4.1-3.9l-0.6,0.7c-0.5,1-1.8,1.9-0.9,3.1c1.5,1.3,3.3,1.4,5,0.7L9.1,186.9"/>
		</defs>
		<clipPath id="SVGID_2_">
			<use xlink:href="#SVGID_1_"  style="overflow:visible;"/>
		</clipPath>
		<g class="st1">
			<g>
				<g>
					<path class="st2" d="M191.4,131.1c3.1,4.7,1.9,11.1-0.7,15.6c-2.6,3.4-6,6.6-10.5,6.3c-1.4-1-3.5-1.7-4.1-3.5
						c-0.5-4.7,0.1-9.2,0.1-13.8l-0.6-0.3l-1.6,0.7l-0.3-0.4c0.5-2.3-1-5.7,1.8-6.7C180.3,126.3,188.1,125.6,191.4,131.1"/>
					<path class="st2" d="M247.5,112.9c0.5,7.2,0.1,14.2-0.2,21.1l0.4,1.9c-1.6,1.3-4.3,1.3-6.2,0.7c-2.2-3.4-3.3-7.4-5.3-10.8
						l0,12.3l-1.3,1.6c-1.5,0.2-4,0.9-4.9-0.7c0-7.8-0.3-15.7,0.6-23.2c0.1-1.5,1.7-1.1,2.6-1.4c1.9,0.1,4.2,0.3,5.1,2.4
						c1.2,1.8,2.1,3.9,3.1,5.8l0.2-0.3c-0.1-3.3-0.3-6.7,0.2-9.8c1.4-1.2,3.5-0.6,5-0.4L247.5,112.9"/>
					<path class="st2" d="M227.1,121.1c2.3,7.5,2.6,16.7-4.1,21.9c-1.9,1.3-4.8,1.7-6.9,0.7c-4.9-2.4-6-8.1-5.6-13.3
						c0.2-4.7,2.2-9.6,6.6-12.1c0.7-0.4,1.6-0.6,2.5-0.5l0.8,2.3c1.2-1.2,1.9-3.8,3.9-3.1C225.8,118.1,226.3,119.7,227.1,121.1"/>
					<path class="st2" d="M209.4,121.3c0.2,1.9,0.6,4.2-0.9,5.5c-2.6,0.7-5.6,0.8-8,1.8c0.6,0.5,1.8,0.4,1.9,1.3
						c0.3,0.7-0.4,1.6,0.5,1.9c1.9-0.3,3.9-1.2,5.9-0.9c0.9,1.6,0.4,3.9,0,5.6l-0.8,0.6l-5.6,1.2l-0.3,0.4c-0.1,0.9-0.4,2,0.2,2.8
						l6.1-1.2l0.8,1.6c0.1,1.4-0.1,2.6-0.5,3.8l-1.1,0.6l-8.4,1.8c-1.4-0.1-2.8-1.5-3.3-2.7l-0.2-5c-0.7-0.4-1.5-0.8-1.5-1.7
						c0.2-1.8-0.7-4.5,1.6-5.1c0.5-1,0.1-2.3,0.2-3.5c-0.5-0.5-1.7,0.2-1.9-0.7c0.4-2-1.1-5.3,1.5-6c3.8-1.1,7.8-1.9,11.7-2.6
						C208.3,120.5,209.4,120.3,209.4,121.3"/>
					<path class="st2" d="M172.3,134.2c2.1,6.9,2.6,15.2-2.5,20.8c-1.9,1.8-4.5,3.1-7.3,2.3c-4-1.1-6-5.1-6.5-8.9
						c-0.6-6.4,0.4-13.1,6.2-16.8c0.8-0.3,1.7-0.9,2.7-0.5l0.7,2.1c1.4-1,2-3.9,4.1-2.9C171,131.3,171.6,132.8,172.3,134.2"/>
					<path class="st2" d="M150.2,136.4c0,5.8-0.6,11.4-0.3,17.3l0.3,0.2c2.2-0.3,4.2-1.1,6.4-1.3c0.8,0.9,0.3,2.2,0.5,3.3
						c-0.1,1-0.1,2.1-0.7,2.9l-1.2,0.6l-7.2,1.5c-1.9-0.6-3.6-2.4-4.4-4.1c-0.4-7,0.2-13.7,0.7-20.4c1.4-1,3.3-0.8,5-0.7
						L150.2,136.4"/>
					<path class="st2" d="M142,138c0.5,1.8,0.1,3.5-0.2,5.1l-0.9,0.6c-2.6,0.4-5.2,1-7.7,1.7l1.8,1l0.5,2.2c2-0.3,3.8-1.1,5.9-0.9
						c0.7,0.8,0.5,2.1,0.5,3.1c-0.1,1-0.1,2.1-0.7,2.9c-2,0.6-4.2,0.9-6.2,1.5c-0.5,0.8-0.3,1.9-0.4,2.8l1.6,0.1
						c1.7-0.3,3.3-1.1,5.1-1c1.1,1.4,0.6,3.5,0.3,5.1l-0.7,0.7l-8.6,2c-1.6,0-3-1.4-3.8-2.7c-0.2-1.6-0.2-3.4-0.2-5
						c-0.4-0.7-1.5-0.3-1.3-1.3c-0.2-1.6-0.3-3.3,0.2-4.7c0.3-0.6,1.3-0.3,1.5-1.2c-0.2-1.1,0.5-2.2-0.3-3.2
						c-0.7,0.1-1.7,0.2-1.8-0.8c0.3-2-0.7-4.8,1.5-5.7c3.7-1.1,7.6-1.9,11.4-2.6C140.4,137.5,141.7,137,142,138"/>
					<path class="st2" d="M81.7,146c0.1,5.2-0.5,10.2-0.4,15.3L81,174.5c0.1,0.8,1,1.6,0.4,2.5c-1.6,1.1-4.2,1.3-6.1,0.7l-0.9-1.1
						c-2.2-5-4.4-10-6.6-14.9l-0.2,0.6l0.1,17.6l-1.4,1.4c-1.7,0.4-4.2,0.9-5.4-0.5l-0.3-1.2c-0.2-9.7-0.1-19.4,0.5-28.8l1-1.6
						c2.3-0.6,4.7-0.2,6.7,0.7c2.1,3.2,3.8,6.6,5.3,10.1l0.2-0.4l0.7-12.3l1.3-1.7C78.1,145.3,80.6,144.4,81.7,146"/>
					<path class="st2" d="M126,142.5c-0.2,5.5-1.9,10.9-6.5,14.6c2.3,2.8,5.2,5.4,7.3,8.3c0.2,2-1.9,3.1-3.2,4
						c-1.8,1-2.5-1.4-3.7-2.2l-4.5-5.2l-0.2,0.6c0.1,2.1,0.2,4.2-0.1,6.2c-0.8,1-2.5,0.6-3.8,0.8c-0.8-0.2-2,0.1-2.4-0.9l0.4-20.8
						c0.1-1.2-0.1-2.4,0.5-3.4c1.5-0.8,3.9-1.1,5.6-0.4c0.8,1.6,0.1,3.3,0.2,5c-0.1,1-0.3,1.9-0.2,3l0.3,0.2
						c3.5-2.4,3.7-6.6,4.7-10.2c0.8-0.7,2.1-0.5,3.1-0.5C124.5,141.7,125.4,141.8,126,142.5"/>
					<path class="st2" d="M106.9,148.2c0.8,1.7,1.4,4,0.5,5.8c-1.1,1.3-2.9,1.7-4.5,1.5c-1.2-0.7,0.3-3.1-1.6-2.7
						c-1.8,2.6-1.7,5.9-1.8,9c0.3,1.3,0.1,3,1.3,3.7c2-0.4,0.9-2.7,2.2-3.7c1.1-1,2.9-1.6,4.4-1c0.9,0.9,0.7,2.5,0.6,3.7
						c-0.4,2.8-1.7,5.8-4.5,7.3c-1.4,0.8-3.1,1.3-4.8,1c-5.1-2-5.5-7.7-5.7-12.7c0.4-5.2,2-11.6,7.7-13.5
						C102.9,145.8,105.6,146.1,106.9,148.2"/>
					<path class="st2" d="M91.8,150.9l0,2.8l-0.6,20.7c-1.4,1.6-4.3,1.5-6.2,0.8c-1.2-0.9-0.4-2.5-0.8-3.8c0.2-6.6,0.1-13.4,1-20.1
						c1.2-1.5,3.6-1.5,5.4-1.2L91.8,150.9"/>
					<path class="st2" d="M248.4,113.1l0.9-1.6l1.6,1l-0.9,1.6L248.4,113.1 M250.1,114.4c0.8-0.2,1.4-1,1.2-1.9
						c-0.2-0.9-1.1-1.4-1.9-1.2c-0.8,0.2-1.4,1-1.2,1.9C248.3,114.1,249.2,114.6,250.1,114.4z M249.4,113l0.3-0.1l0.6,0.7l0.3-0.1
						l-0.7-0.7l0.3-0.6l-0.8-0.4l-0.7,0.1l0.4,1.8l0.3-0.1L249.4,113z M249.3,112.8l-0.1-0.6l0.4-0.1l0.4,0.2l-0.4,0.4L249.3,112.8z
						"/>
				</g>
				<g>
					<path class="st0" d="M220.6,136.2L219,137c-2.5-1.5-1.8-5.2-1.6-7.8c0.1-2.3,1.8-4.1,2.9-6C222.3,127,222.4,132.5,220.6,136.2"
						/>
					<path class="st0" d="M184.8,133.8c1.8,1.3,2.2,3.6,2.1,5.7c-0.4,2.3-1.5,5.2-4,6c-0.3-3.5,0.1-7.1-0.1-10.7
						c-0.4-1.3-1.9-1.4-3-1.5C181.4,132.7,183.4,132.8,184.8,133.8"/>
					<path class="st0" d="M166,149.3l-1.7,1c-1-0.6-1.8-6-1.7-7.2c0.2-2.4,1.3-4.4,3-6.3C167.6,140.3,167.6,145.6,166,149.3"/>
				</g>
			</g>
		</g>
	</g>
</g>
</svg>
